<?xml version="1.0" encoding="UTF-8"?>
<svg version="1.1" xmlns="http://www.w3.org/2000/svg" width="64" height="64">
<path d="M0 0 C21.12 0 42.24 0 64 0 C64 21.12 64 42.24 64 64 C42.88 64 21.76 64 0 64 C0 42.88 0 21.76 0 0 Z " fill="#4484AE" transform="translate(0,0)"/>
<path d="M0 0 C9.24 0 18.48 0 28 0 C28 21.12 28 42.24 28 64 C18.76 64 9.52 64 0 64 C0 63.67 0 63.34 0 63 C0.69867188 62.79503906 1.39734375 62.59007812 2.1171875 62.37890625 C3.02726562 62.10949219 3.93734375 61.84007812 4.875 61.5625 C5.77992187 61.29566406 6.68484375 61.02882812 7.6171875 60.75390625 C9.98275381 60.07386174 9.98275381 60.07386174 12 59 C12.33 57.02 12.66 55.04 13 53 C5.08 53 -2.84 53 -11 53 C-9.35 51.68 -7.7 50.36 -6 49 C-0.50330128 44.30769621 2.33521947 39.21595861 3.45703125 32.1015625 C3.88188507 24.41467241 2.07710483 18.83701857 -3 13 C-5.30588096 11.22341307 -7.31138104 10.18299234 -10 9 C-10 8.67 -10 8.34 -10 8 C-2.74 8 4.52 8 12 8 C12 6.68 12 5.36 12 4 C6.06 2.515 6.06 2.515 0 1 C0 0.67 0 0.34 0 0 Z " fill="#F4A597" transform="translate(36,0)"/>
<path d="M0 0 C8.58 0 17.16 0 26 0 C23.79478865 1.10260567 21.58870893 2.2035002 19.37890625 3.296875 C11.50623687 7.33079354 11.50623687 7.33079354 6 14 C5.73280028 17.23590328 5.73280028 17.23590328 7 20 C8.64539322 21.32575833 8.64539322 21.32575833 11 22 C12.25285953 22.53501941 13.50271756 23.07710468 14.75 23.625 C15.8225 24.07875 16.895 24.5325 18 25 C18.69907446 30.15567414 18.69907446 30.15567414 18 33 C16.16363236 34.55934868 14.24912174 35.53344022 12.12109375 36.65625 C8.54769261 38.92006214 6.46694134 42.06410821 5 46 C5.25816743 48.77058026 5.25816743 48.77058026 7 51 C7.53625 51.825 8.0725 52.65 8.625 53.5 C13.19433554 58.30982689 18.60889375 61.24244578 25 63 C25 63.33 25 63.66 25 64 C16.75 64 8.5 64 0 64 C0 42.88 0 21.76 0 0 Z " fill="#F5AA94" transform="translate(0,0)"/>
<path d="M0 0 C0 1.32 0 2.64 0 4 C-9.57 4 -19.14 4 -29 4 C-28.98839844 7.155625 -28.97679687 10.31125 -28.96484375 13.5625 C-28.95703283 16.63720601 -28.95096765 19.71191089 -28.94506836 22.78662109 C-28.94005651 24.91455586 -28.93324528 27.04248721 -28.92456055 29.17041016 C-28.91235664 32.23861537 -28.90674007 35.30677484 -28.90234375 38.375 C-28.89718246 39.31802979 -28.89202118 40.26105957 -28.88670349 41.23266602 C-28.88625453 46.58428404 -29.21601106 51.70468368 -30 57 C-35.99686268 53.43323854 -40.69657109 50.26512379 -44 44 C-43.5625 41.4375 -43.5625 41.4375 -42 39 C-41.4225 37.989375 -40.845 36.97875 -40.25 35.9375 C-37.80005722 32.73896359 -35.49294833 30.97427515 -32 29 C-31.34 29 -30.68 29 -30 29 C-30 26.36 -30 23.72 -30 21 C-30.70125 20.9175 -31.4025 20.835 -32.125 20.75 C-36.98357846 19.48254475 -40.22923754 17.15614369 -43 13 C-42.88237639 9.58891522 -40.98424657 7.11527537 -38.79296875 4.58984375 C-27.57267294 -5.35930744 -13.23850115 -6.61925057 0 0 Z " fill="#6EAA89" transform="translate(48,4)"/>
<path d="M0 0 C7.26 0 14.52 0 22 0 C22 14.52 22 29.04 22 44 C15.4 44 8.8 44 2 44 C4.475 41.525 4.475 41.525 7 39 C12.59417276 31.48782515 14.31794843 24.28395531 13 15 C10.92427626 9.59277659 8.18923887 5.32484178 3.125 2.375 C2.09375 1.92125 1.0625 1.4675 0 1 C0 0.67 0 0.34 0 0 Z " fill="#F2EEE5" transform="translate(26,8)"/>
<path d="M0 0 C10.23 0 20.46 0 31 0 C31 1.98 31 3.96 31 6 C29.77493102 6.65357278 28.54470484 7.29748233 27.3125 7.9375 C26.62800781 8.29714844 25.94351563 8.65679687 25.23828125 9.02734375 C19.12655986 11.68322268 11.12750777 12.2219128 4.73046875 10.328125 C2.8125 9.5 2.8125 9.5 0 8 C0 5.36 0 2.72 0 0 Z " fill="#3B3B35" transform="translate(18,53)"/>
<path d="M0 0 C0.33 0 0.66 0 1 0 C1 8.58 1 17.16 1 26 C-8.24 26 -17.48 26 -27 26 C-27 25.67 -27 25.34 -27 25 C-26.30132812 24.79503906 -25.60265625 24.59007813 -24.8828125 24.37890625 C-23.97273438 24.10949219 -23.06265625 23.84007813 -22.125 23.5625 C-21.22007813 23.29566406 -20.31515625 23.02882813 -19.3828125 22.75390625 C-17.01724619 22.07386174 -17.01724619 22.07386174 -15 21 C-14.34227572 17.97065509 -14.34227572 17.97065509 -14 15 C-11.36 15 -8.72 15 -6 15 C-5.57074219 13.92685547 -5.57074219 13.92685547 -5.1328125 12.83203125 C-3.421875 8.5546875 -1.7109375 4.27734375 0 0 Z " fill="#FBF9F9" transform="translate(63,38)"/>
<path d="M0 0 C0 9.24 0 18.48 0 28 C-11.01869159 20.65420561 -11.01869159 20.65420561 -14 15 C-13.5625 12.4375 -13.5625 12.4375 -12 10 C-11.4225 8.989375 -10.845 7.97875 -10.25 6.9375 C-7.67787675 3.5794502 -4.51252182 0 0 0 Z " fill="#B1D152" transform="translate(18,33)"/>
<path d="M0 0 C9.24 0 18.48 0 28 0 C28 8.25 28 16.5 28 25 C26.46352175 22.69528263 25.33773241 20.66906524 24.1875 18.1875 C22.21926864 14.22176989 20.09819418 11.17564904 17 8 C14.94074861 7.27617533 14.94074861 7.27617533 13 7 C12.57332031 6.53335937 12.14664063 6.06671875 11.70703125 5.5859375 C9.54083662 3.57340885 7.65015765 3.08640663 4.8125 2.3125 C3.91144531 2.06113281 3.01039062 1.80976562 2.08203125 1.55078125 C1.39496094 1.36902344 0.70789062 1.18726562 0 1 C0 0.67 0 0.34 0 0 Z " fill="#FBFBFA" transform="translate(36,0)"/>
<path d="M0 0 C2.38411113 2.38411113 3.20434454 4.60359715 4.5625 7.6875 C8.39256359 15.45945386 13.51198084 19.83128199 21.5625 22.9375 C23.2640625 23.4634375 23.2640625 23.4634375 25 24 C25 24.33 25 24.66 25 25 C16.75 25 8.5 25 0 25 C0 16.75 0 8.5 0 0 Z " fill="#FDFDFB" transform="translate(0,39)"/>
<path d="M0 0 C8.58 0 17.16 0 26 0 C23.82748873 1.08625564 21.64994001 2.16350428 19.44921875 3.19140625 C10.92516395 7.42329201 5.50802756 12.59142595 2.0625 21.5625 C1.711875 22.696875 1.36125 23.83125 1 25 C0.67 25 0.34 25 0 25 C0 16.75 0 8.5 0 0 Z " fill="#FCFCFC" transform="translate(0,0)"/>
<path d="M0 0 C0 1.32 0 2.64 0 4 C-9.9 4 -19.8 4 -30 4 C-30 2.35 -30 0.7 -30 -1 C-19.79755906 -5.53441819 -10.05193049 -5.02596525 0 0 Z " fill="#5D5A50" transform="translate(48,4)"/>
<path d="M0 0 C0.33 0 0.66 0 1 0 C1 3.63 1 7.26 1 11 C1.66 11 2.32 11 3 11 C2.835 12.175625 2.67 13.35125 2.5 14.5625 C2.01271488 18.41273873 1.91922043 22.12258073 2 26 C1.34 26 0.68 26 0 26 C0 17.42 0 8.84 0 0 Z " fill="#3378A7" transform="translate(19,27)"/>
<path d="M0 0 C6.93 0 13.86 0 21 0 C20.01 0.495 20.01 0.495 19 1 C18.67 1.99 18.34 2.98 18 4 C17.67 3.34 17.34 2.68 17 2 C16.360625 2.185625 15.72125 2.37125 15.0625 2.5625 C14.381875 2.706875 13.70125 2.85125 13 3 C12.67 2.67 12.34 2.34 12 2 C9.98405418 1.76572222 7.961526 1.58663876 5.9375 1.4375 C4.83277344 1.35371094 3.72804688 1.26992188 2.58984375 1.18359375 C1.73519531 1.12300781 0.88054688 1.06242187 0 1 C0 0.67 0 0.34 0 0 Z " fill="#46453E" transform="translate(24,53)"/>
<path d="M0 0 C2.31 0 4.62 0 7 0 C2.25 4.875 2.25 4.875 0 6 C0 4.02 0 2.04 0 0 Z " fill="#ECE2D3" transform="translate(49,53)"/>
<path d="M0 0 C1.4540625 0.0309375 1.4540625 0.0309375 2.9375 0.0625 C0.10319547 3.3167015 -1.74857774 4.5831753 -6.0625 5.0625 C-3.64893617 0.07446809 -3.64893617 0.07446809 0 0 Z " fill="#3679A0" transform="translate(28.0625,47.9375)"/>
<path d="M0 0 C0 3 0 3 -2.375 5.6875 C-5 8 -5 8 -7 8 C-5.50902342 4.2047869 -3.24299151 2.38957269 0 0 Z " fill="#7CB791" transform="translate(14,5)"/>
</svg>
